<?xml version="1.0" encoding="utf-8"?>
<!-- Generator: Adobe Illustrator 24.2.1, SVG Export Plug-In . SVG Version: 6.00 Build 0)  -->
<svg version="1.1" id="Layer_1" xmlns="http://www.w3.org/2000/svg" xmlns:xlink="http://www.w3.org/1999/xlink" x="0px" y="0px"
	 viewBox="0 0 89.6 65.2" style="enable-background:new 0 0 89.6 65.2;" xml:space="preserve">
<style type="text/css">
	.st0{fill:#106EEA;}
	.st1{fill:#FEFEFE;}
	.st2{fill:none;stroke:#FEFEFE;stroke-width:2.0381;stroke-miterlimit:10;}
	.st3{fill:none;stroke:#FFFFFF;stroke-width:6.1143;stroke-miterlimit:10;}
	.st4{fill:#FFFFFF;}
</style>
<g>
	<g>
		<path class="st0" d="M14.8,56.1c0,2.3-0.1,4.5,0,6.7c0.1,1.5-1,2.4-2.3,2.4c-2.8-0.1-5.6,0-8.4,0c-1.6,0-2.4-0.7-2.3-2.4
			C2,58.5,1.4,54.2,0.7,50c-0.7-4.2-1-8.4-0.1-12.6c0.3-1.7,0.9-3.4,2.6-4.2c1-0.5,2.1-0.8,3.1-1.1c0.5-0.2,1-0.3,1.5-0.5
			c-0.3-1-0.6-1.8-0.9-2.7c-0.1-0.3-0.1-0.6-0.2-0.9C6,26.1,7,25.3,8.6,25c1-0.1,2.1,0.1,3.2,0.2c0.3-1.4,0.7-2.8,1-4.3
			c0.6-2.7,1.2-5.4,2.7-7.8c0.4-0.7,1-1.2,1.8-1.3c1.8-0.3,3.6-0.7,5.4-0.9c8.3-0.9,16.7-0.9,25-0.8c5.1,0.1,10.2,0.2,15.2,0.9
			c1.1,0.2,2.1,0.4,3.2,0.5c1.7,0.2,2.8,1.3,3.3,2.8c0.7,2.1,1.3,4.3,2,6.5c0.4,1.4,0.7,2.9,1.1,4.3c0.8-0.1,1.4-0.2,2.1-0.3
			c0.4,0,0.9,0,1.3,0c1.6,0.3,2.2,1.3,1.8,2.9c-0.3,1.2-0.7,2.3-1.1,3.6c0.6,0.2,1.3,0.5,1.9,0.6c3.4,0.6,4.9,2.7,5.4,5.9
			c0.5,3.6,0.4,7.1-0.1,10.7c-0.3,2.4-0.8,4.7-1.2,7.1c-0.1,0.9-0.1,1.8-0.1,2.7c0,1.5,0,3.1,0,4.6c0,1.3-0.8,2.1-2.1,2.1
			c-3,0-5.9,0-8.9,0c-1.3,0-2.1-0.8-2.1-2.1c0-2.3,0-4.6,0-7C51.3,56.1,33.1,56.1,14.8,56.1z M69,28.3c-0.4-1-0.7-1.9-1.1-2.8
			c-1-2.3-2.1-4.5-3.2-6.8c-0.4-0.8-0.8-1.6-1.4-2.3c-0.3-0.4-0.8-0.7-1.3-0.8c-1.5-0.3-2.9-0.5-4.4-0.6c-8.9-0.5-17.9-0.6-26.8-0.2
			c-2.8,0.1-5.7,0.5-8.5,0.8c-0.4,0-0.8,0.3-1.1,0.6c-0.6,0.8-1.3,1.7-1.8,2.6c-0.7,1.4-1.4,2.9-2,4.4c-0.7,1.7-1.4,3.3-2.1,5.1
			C33.3,28.3,51.1,28.3,69,28.3z M17.7,46.5c0.5,0,1.4-0.1,2.3-0.2c0.6-0.1,1.4-0.2,1.4-0.9c0-0.4-0.4-1.1-0.8-1.4
			c-2-1.4-4.1-2.8-6.3-4c-1.6-0.9-3.4-1.4-5.1-2c-1.1-0.4-1.9,0.2-2.5,1.1c-0.9,1.2-1.1,2.6-1,4.1C5.8,44.4,6,44.7,7,44.9
			C10.4,45.9,13.8,46.4,17.7,46.5z M66.6,46.5c3.9-0.2,7.4-0.6,10.8-1.6c1-0.3,1.3-0.5,1.3-1.6c0-0.9,0-1.9-0.3-2.8
			c-0.9-2.4-2-2.9-4.1-2.2c-1.5,0.5-2.9,1.1-4.3,1.8c-2.2,1.1-4.4,2.3-6.3,4c-0.4,0.3-0.8,1-0.7,1.3c0.1,0.4,0.8,0.7,1.3,0.8
			C65.1,46.5,66,46.5,66.6,46.5z"/>
		<path class="st0" d="M69,28.3c-17.9,0-35.7,0-53.6,0c0.7-1.8,1.4-3.4,2.1-5.1c0.6-1.5,1.3-2.9,2-4.4c0.5-0.9,1.1-1.8,1.8-2.6
			c0.2-0.3,0.7-0.5,1.1-0.6c2.8-0.3,5.7-0.6,8.5-0.8c8.9-0.4,17.9-0.3,26.8,0.2c1.5,0.1,2.9,0.3,4.4,0.6c0.5,0.1,1,0.4,1.3,0.8
			c0.5,0.7,1,1.5,1.4,2.3c1.1,2.3,2.2,4.5,3.2,6.8C68.3,26.4,68.6,27.3,69,28.3z"/>
		<path class="st1" d="M17.7,46.5c-3.9-0.2-7.3-0.6-10.7-1.6c-1-0.3-1.2-0.6-1.3-1.6c-0.1-1.5,0.2-2.9,1-4.1
			c0.6-0.9,1.5-1.4,2.5-1.1c1.7,0.6,3.5,1.1,5.1,2c2.2,1.2,4.2,2.6,6.3,4c0.4,0.3,0.8,0.9,0.8,1.4c0,0.7-0.8,0.8-1.4,0.9
			C19.2,46.4,18.3,46.5,17.7,46.5z"/>
		<path class="st1" d="M66.6,46.5c-0.5,0-1.4-0.1-2.3-0.2c-0.5-0.1-1.2-0.4-1.3-0.8c-0.1-0.3,0.3-1,0.7-1.3c1.9-1.7,4-2.9,6.3-4
			c1.4-0.7,2.8-1.3,4.3-1.8c2-0.7,3.2-0.2,4.1,2.2c0.3,0.9,0.3,1.8,0.3,2.8c0,1.1-0.2,1.3-1.3,1.6C74,45.9,70.5,46.4,66.6,46.5z"/>
		<g>
			<path class="st2" d="M69,28.3H15.4c0.7-1.8,1.4-3.4,2.1-5.1c0.7-1.5,1.3-2.9,2-4.4c0.5-0.9,1.1-1.8,1.8-2.6
				c0.2-0.3,0.7-0.5,1.1-0.6c2.8-0.3,5.7-0.6,8.5-0.8c3.3-0.1,6.6-0.2,9.9-0.2c3.2,0,6.5,0,9.7,0.1c1.1,0,2.1,0.1,3.2,0.1
				c1,0,2,0.1,2.9,0.1c0.4,0,0.8,0,1.1,0.1c1.5,0.1,2.9,0.3,4.4,0.6c0.5,0.1,1,0.4,1.3,0.8c0.5,0.7,1,1.5,1.4,2.3
				c1.1,2.2,2.2,4.5,3.2,6.8C68.3,26.4,68.6,27.3,69,28.3z"/>
			<g>
				<path class="st1" d="M50.4,14.8L39.7,28.3H28.9l11.8-13.6C43.9,14.6,47.2,14.7,50.4,14.8z"/>
				<path class="st1" d="M56.5,15l-8.9,13.3h-4.2l10.2-13.4C54.6,14.9,55.6,15,56.5,15z"/>
			</g>
		</g>
	</g>
	<g>
		<path class="st3" d="M86.5,8.7c0-0.1,0-0.2,0-0.3c0-0.6-0.1-1.2-0.1-1.8c0-0.2-0.1-0.5-0.1-0.8c-3.9,0.6-7.9,0.9-11.5-1.9
			c-0.1,0-0.1,0.1-0.2,0.1c-0.4,0.3-0.8,0.5-1.1,0.8c0,0-0.1,0-0.1,0.1c-1.8,1-3.8,1.3-5.7,1.3c-0.1,0-0.1,0-0.2,0
			c-0.4,0-0.8,0-1.1,0c-0.2,0-0.4,0-0.6,0c-0.2,0-0.4,0-0.6-0.1c-0.6-0.1-1.3-0.2-1.9-0.3c0,0,0,0,0,0c0,0,0,0,0,0
			c0,0.1,0,0.2,0,0.3c0,0.1,0,0.2,0,0.3c0,0.6-0.1,1.1-0.1,1.7c-0.2,4.8,0.3,8.9,1.8,12.7c0.4,1,0.9,1.9,1.4,2.8
			c1.8,3.1,4.4,5.5,7.7,7.1c0,0,0.1,0,0.1,0c0.3,0.1,0.5,0.2,0.8,0.2c0.3,0,0.5-0.1,0.8-0.2c0,0,0,0,0,0c4.2-2,7.3-5.4,9-9.9
			C86,17.3,86.6,13.3,86.5,8.7z"/>
		<g>
			<g>
				<path class="st0" d="M86.5,8.7c0.1,4.6-0.4,8.6-1.9,12.1c-1.8,4.5-4.8,7.8-9,9.9c-0.3,0.2-0.6,0.2-0.9,0.2
					c-0.3,0-0.5-0.1-0.9-0.2c-4.2-2.1-7.3-5.4-9-9.9c-1.5-3.8-2.1-8-1.8-12.7c0-0.6,0.1-1.1,0.1-1.7c0-0.2,0-0.3,0.1-0.5
					c3.7,0.6,7.9,0.9,11.5-1.9c3.6,2.8,7.6,2.5,11.5,1.9c0,0.3,0,0.5,0.1,0.8C86.4,7.2,86.5,8,86.5,8.7z"/>
			</g>
			<path class="st4" d="M86.5,8.7c0.1,4.6-0.4,8.6-1.9,12.1c-1.8,4.5-4.8,7.8-9,9.9c-0.3,0.2-0.6,0.2-0.9,0.2V3.9
				c3.6,2.8,7.6,2.5,11.5,1.9c0,0.3,0,0.5,0.1,0.8C86.4,7.2,86.5,8,86.5,8.7z"/>
			<g>
				<g>
					<path class="st0" d="M74.8,6.4c2.1,1.2,4.4,1.9,7.2,1.9c0.8,0,1.7-0.1,2.5-0.1c0,0.2,0,0.4,0,0.7c0.1,4.3-0.4,8-1.7,11.3
						c-1.6,4-4.3,7-8,8.8c-3.7-1.8-6.4-4.8-8-8.8c-1.4-3.5-1.9-7.4-1.7-11.9c0,0,0,0,0,0c0.8,0.1,1.6,0.1,2.4,0.1
						C70.3,8.2,72.7,7.6,74.8,6.4 M74.8,3.9c-2.3,1.8-4.8,2.3-7.2,2.3c-1.5,0-2.9-0.2-4.3-0.4c0,0.2,0,0.4-0.1,0.6
						c-0.1,0.6-0.1,1.1-0.1,1.7c-0.3,4.8,0.3,9,1.8,12.8c1.8,4.5,4.8,7.9,9,9.9c0.3,0.2,0.6,0.2,0.9,0.2c0.3,0,0.5-0.1,0.8-0.2
						c4.2-2,7.3-5.4,9-9.9c1.4-3.5,2-7.5,1.9-12.1c0-0.7-0.1-1.4-0.2-2.2c0-0.2,0-0.5-0.1-0.7C84.9,6,83.4,6.2,82,6.2
						C79.5,6.2,77,5.6,74.8,3.9L74.8,3.9z"/>
				</g>
			</g>
		</g>
	</g>
</g>
</svg>
