<?xml version="1.0" encoding="utf-8"?>
<!-- Generator: Adobe Illustrator 24.2.1, SVG Export Plug-In . SVG Version: 6.00 Build 0)  -->
<svg version="1.1" id="Layer_1" xmlns="http://www.w3.org/2000/svg" xmlns:xlink="http://www.w3.org/1999/xlink" x="0px" y="0px"
	 viewBox="0 0 84.4 55.1" style="enable-background:new 0 0 84.4 55.1;" xml:space="preserve">
<style type="text/css">
	.st0{fill:#106EEA;}
	.st1{fill:#FEFEFE;}
	.st2{fill:none;stroke:#FEFEFE;stroke-width:2.0381;stroke-miterlimit:10;}
	.st3{fill:#FFFFFF;}
</style>
<g>
	<path class="st0" d="M14.8,46c0,2.3-0.1,4.5,0,6.7c0.1,1.5-1,2.4-2.3,2.4c-2.8-0.1-5.6,0-8.4,0c-1.6,0-2.4-0.7-2.3-2.4
		c0.2-4.3-0.4-8.6-1.1-12.8c-0.7-4.2-1-8.4-0.1-12.6c0.3-1.7,0.9-3.4,2.6-4.2c1-0.5,2.1-0.8,3.1-1.1c0.5-0.2,1-0.3,1.5-0.5
		c-0.3-1-0.6-1.8-0.9-2.7c-0.1-0.3-0.1-0.6-0.2-0.9C6,16,7,15.2,8.6,14.9c1-0.1,2.1,0.1,3.2,0.2c0.3-1.4,0.7-2.8,1-4.3
		c0.6-2.7,1.2-5.4,2.7-7.8c0.4-0.7,1-1.2,1.8-1.3C19.2,1.4,21,1,22.8,0.8c8.3-0.9,16.7-0.9,25-0.8C52.9,0.1,58,0.3,63,1
		c1.1,0.2,2.1,0.4,3.2,0.5C68,1.7,69,2.8,69.5,4.3c0.7,2.1,1.3,4.3,2,6.5c0.4,1.4,0.7,2.9,1.1,4.3c0.8-0.1,1.4-0.2,2.1-0.3
		c0.4,0,0.9,0,1.3,0c1.6,0.3,2.2,1.3,1.8,2.9c-0.3,1.2-0.7,2.3-1.1,3.6c0.6,0.2,1.3,0.5,1.9,0.6c3.4,0.6,4.9,2.7,5.4,5.9
		c0.5,3.6,0.4,7.1-0.1,10.7c-0.3,2.4-0.8,4.7-1.2,7.1c-0.1,0.9-0.1,1.8-0.1,2.7c0,1.5,0,3.1,0,4.6c0,1.3-0.8,2.1-2.1,2.1
		c-3,0-5.9,0-8.9,0c-1.3,0-2.1-0.8-2.1-2.1c0-2.3,0-4.6,0-7C51.3,46,33.1,46,14.8,46z M69,18.2c-0.4-1-0.7-1.9-1.1-2.8
		c-1-2.3-2.1-4.5-3.2-6.8c-0.4-0.8-0.8-1.6-1.4-2.3C63,5.9,62.5,5.6,62,5.5C60.6,5.3,59.1,5,57.7,5c-8.9-0.5-17.9-0.6-26.8-0.2
		c-2.8,0.1-5.7,0.5-8.5,0.8c-0.4,0-0.8,0.3-1.1,0.6c-0.6,0.8-1.3,1.7-1.8,2.6c-0.7,1.4-1.4,2.9-2,4.4c-0.7,1.7-1.4,3.3-2.1,5.1
		C33.3,18.2,51.1,18.2,69,18.2z M17.7,36.4c0.5,0,1.4-0.1,2.3-0.2c0.6-0.1,1.4-0.2,1.4-0.9c0-0.4-0.4-1.1-0.8-1.4
		c-2-1.4-4.1-2.8-6.3-4c-1.6-0.9-3.4-1.4-5.1-2c-1.1-0.4-1.9,0.2-2.5,1.1c-0.9,1.2-1.1,2.6-1,4.1C5.8,34.3,6,34.5,7,34.8
		C10.4,35.8,13.8,36.2,17.7,36.4z M66.6,36.4c3.9-0.2,7.4-0.6,10.8-1.6c1-0.3,1.3-0.5,1.3-1.6c0-0.9,0-1.9-0.3-2.8
		c-0.9-2.4-2-2.9-4.1-2.2c-1.5,0.5-2.9,1.1-4.3,1.8c-2.2,1.1-4.4,2.3-6.3,4c-0.4,0.3-0.8,1-0.7,1.3c0.1,0.4,0.8,0.7,1.3,0.8
		C65.1,36.4,66,36.4,66.6,36.4z"/>
	<path class="st0" d="M69,18.2c-17.9,0-35.7,0-53.6,0c0.7-1.8,1.4-3.4,2.1-5.1c0.6-1.5,1.3-2.9,2-4.4c0.5-0.9,1.1-1.8,1.8-2.6
		c0.2-0.3,0.7-0.5,1.1-0.6c2.8-0.3,5.7-0.6,8.5-0.8C39.8,4.4,48.7,4.4,57.7,5C59.1,5,60.6,5.3,62,5.5c0.5,0.1,1,0.4,1.3,0.8
		c0.5,0.7,1,1.5,1.4,2.3c1.1,2.3,2.2,4.5,3.2,6.8C68.3,16.3,68.6,17.2,69,18.2z"/>
	<path class="st1" d="M17.7,36.4c-3.9-0.2-7.3-0.6-10.7-1.6c-1-0.3-1.2-0.6-1.3-1.6c-0.1-1.5,0.2-2.9,1-4.1c0.6-0.9,1.5-1.4,2.5-1.1
		c1.7,0.6,3.5,1.1,5.1,2c2.2,1.2,4.2,2.6,6.3,4c0.4,0.3,0.8,0.9,0.8,1.4c0,0.7-0.8,0.8-1.4,0.9C19.2,36.3,18.3,36.4,17.7,36.4z"/>
	<path class="st1" d="M66.6,36.4c-0.5,0-1.4-0.1-2.3-0.2c-0.5-0.1-1.2-0.4-1.3-0.8c-0.1-0.3,0.3-1,0.7-1.3c1.9-1.7,4-2.9,6.3-4
		c1.4-0.7,2.8-1.3,4.3-1.8c2-0.7,3.2-0.2,4.1,2.2c0.3,0.9,0.3,1.8,0.3,2.8c0,1.1-0.2,1.3-1.3,1.6C74,35.8,70.5,36.2,66.6,36.4z"/>
	<g>
		<path class="st2" d="M69,18.2H15.4c0.7-1.8,1.4-3.4,2.1-5.1c0.7-1.5,1.3-2.9,2-4.4c0.5-0.9,1.1-1.8,1.8-2.6
			c0.2-0.3,0.7-0.5,1.1-0.6c2.8-0.3,5.7-0.6,8.5-0.8c3.3-0.1,6.6-0.2,9.9-0.2c3.2,0,6.5,0,9.7,0.1c1.1,0,2.1,0.1,3.2,0.1
			c1,0,2,0.1,2.9,0.1c0.4,0,0.8,0,1.1,0.1C59.1,5,60.6,5.3,62,5.5c0.5,0.1,1,0.4,1.3,0.8c0.5,0.7,1,1.5,1.4,2.3
			c1.1,2.2,2.2,4.5,3.2,6.8C68.3,16.3,68.6,17.2,69,18.2z"/>
	</g>
</g>
<path class="st2" d="M61.7,5.9c-8.4,4.6-18.8,5.8-18.8,5.8s7.6,6.6,14.1,6.1c0.5,0,5.6-10.6,5.8-11C63.1,6.2,62.3,5.5,61.7,5.9z"/>
<polygon class="st3" points="67.3,18.2 57,17.8 62.9,7.5 69,18.2 "/>
</svg>
